<svg xmlns:xlink="http://www.w3.org/1999/xlink" data-name="Korkeasti koulutettujen kassa fi black" xmlns="http://www.w3.org/2000/svg" viewBox="0 0 835.1 310.3" width="835.1"  height="310.3" ><path d="M131.5 71.4l-11.4 14.2L52.6 2.8h22.9zm-30.1 37.4l11.4-14.1-75-91.9H14.9zm74.8-93.1l10.4-12.9h-21zm-63-12.9h-23l48.6 59.5 11.4-14.2zm37.7 0h-23L157.5 39l11.4-14.2zM0 2.8v229.6h186.7l-95.6-119zm507 0h-23l67.5 82.8 11.4-14.2zm25.8 106l11.4-14.1-74.9-91.9h-23zm74.8-93.1L618 2.8h-21zm-63-12.9h-22.9l48.5 59.5 11.4-14.2zm37.7 0h-22.9L588.9 39l11.4-14.2zm-150.9 0v229.6h186.7l-95.5-119zM285.8 225.6V214h67.1a116.4 116.4 0 0020.1-17.6h-87.2v-11.6h96.5a113.6 113.6 0 0010.2-17.6H285.8v-11.6h111.4a112.2 112.2 0 004.5-17.5H285.8v-11.6h117.4c.2-3 .4-6 .4-9.1s-.2-5.7-.4-8.5H285.8V97.3h116a105.6 105.6 0 00-4.5-17.6H285.8V68.1h106.9a126.3 126.3 0 00-10.1-17.5h-96.8V39h87.6a118.2 118.2 0 00-19.8-17.6h-67.8V9.8H333A116.2 116.2 0 00286.1 0a117.6 117.6 0 00-117.4 117.4c0 64.8 52.7 117.5 117.4 117.5a116.9 116.9 0 0045.9-9.3zm431.5 0V214h67.1a116.4 116.4 0 0020.1-17.6h-87.2v-11.6h96.4a114.2 114.2 0 0010.3-17.6H717.3v-11.6h111.4a124.6 124.6 0 004.5-17.5H717.3v-11.6h117.4c.2-3 .4-6 .4-9.1s-.2-5.7-.4-8.5H717.3V97.3h116a116.4 116.4 0 00-4.5-17.6H717.3V68.1h106.9a126.3 126.3 0 00-10.1-17.5h-96.8V39h87.6a118.2 118.2 0 00-19.8-17.6h-67.8V9.8h47.2a117.4 117.4 0 00-164.3 107.6c0 64.8 52.7 117.5 117.4 117.5a116.9 116.9 0 0045.9-9.3zm-716 56.9h4.1V294l6.4-11.5H16l-6 10.8 6 16.5h-4.4L7.3 298l-1.9 3.4v8.4H1.3zm42.9 7.6v12.2c0 4.7-2.5 8-7.4 8s-7.3-3.3-7.3-8v-12.2c0-4.8 2.4-8.1 7.3-8.1s7.4 3.5 7.4 8.1zm-4.2 0c0-1.2 0-4-3.2-4s-3.1 2.8-3.1 4v12.2c0 1.1 0 4 3.1 4s3.2-2.9 3.2-4zm28.7 7.7l3.6 12h-4.4l-3.3-11h-2.7v11h-4.2v-27.3h6.7c5.6 0 7.9 3.9 7.9 7.8s-1.3 6.2-3.6 7.5zm-4.5-3.1c3.8 0 4-3 4-4.3a3.7 3.7 0 00-3.8-3.9h-2.5v8.2zm21.7-12.2h4V294l6.5-11.5h4.1l-6 10.8 6 16.5h-4.4L91.8 298l-1.9 3.4v8.4h-4zm28.2 27.3v-27.3h14.6v4.2h-10.2v7.4h9v4.1h-9v7.5h10.2v4.1zm39 0l-.8-5.3h-5.5l-.8 5.3h-4.1l4.3-27.3h6.8l4.3 27.3zm-5.6-9.2h4.2l-2.1-14.1zm26.9 1.7c0 1.3.2 4 3.3 4s3.3-2.8 3.3-3.8-.4-3.2-3.4-4.5c-4.7-2.1-7.2-3.3-7.2-8.3s2.3-7.7 7.3-7.7 7.3 4.3 7.3 8.1v.9h-4v-.9c0-1.2-.3-4.1-3.3-4.1s-3.3 3.1-3.3 3.9.7 2.8 3.7 4 6.9 3.1 6.9 8.6-2.4 7.8-7.3 7.8-7.3-4.3-7.3-8v-2.5h4zm29.3-15.5h-5.2v-4.3h14.8v4.3h-5.2v23h-4.4zm37.7 19v4h-14.6v-4h5.2v-19.3h-5v-4h14.4v4h-5v19.3zm41.7-23.3h4V294l6.5-11.5h4.2l-6.1 10.8 6.1 16.5h-4.5l-4.2-11.8-2 3.4v8.4h-4zm42.8 7.6v12.2c0 4.7-2.4 8-7.3 8s-7.3-3.3-7.3-8v-12.2c0-4.8 2.4-8.1 7.3-8.1s7.3 3.5 7.3 8.1zm-4.1 0c0-1.2-.1-4-3.2-4s-3.2 2.8-3.2 4v12.2c0 1.1.1 4 3.2 4s3.2-2.9 3.2-4zm21.9-7.6v19.8c0 1.1.1 3.9 3.1 3.9s3.1-2.8 3.1-3.9v-19.8h4.2v19.8c0 4.7-2.3 8-7.3 8s-7.3-3.3-7.3-8v-19.8zm23.9 0h4.4v23h10.3v4.3h-14.7zm32.5 0v19.8c0 1.1.1 3.9 3.1 3.9s3-2.8 3-3.9v-19.8h4.3v19.8c0 4.7-2.4 8-7.3 8s-7.4-3.3-7.4-8v-19.8zm29 4.3h-5.2v-4.3h14.8v4.3h-5.2v23h-4.4zm23.1 23v-27.3h14.6v4.2h-10.2v7.4h9v4.1h-9v7.5h10.2v4.1zm33.3-23h-5.2v-4.3H495v4.3h-5.1v23h-4.4zm28.1 0h-5.1v-4.3h14.7v4.3H518v23h-4.4zm27.4-4.3v19.8c0 1.1.1 3.9 3 3.9s3.1-2.8 3.1-3.9v-19.8h4.2v19.8c0 4.7-2.3 8-7.3 8s-7.3-3.3-7.3-8v-19.8zm38.5 3.9v15.9c0 5-2.4 8-7.3 8s-7.3-3-7.3-8v-2.7h4v2.7c0 1.5.2 4.1 3.3 4.1s3.3-2.8 3.3-4.2v-15.7h-9.4v-4h13.4zm13.6 23.4v-27.3h14.6v4.2h-10.3v7.4h9.1v4.1h-9.1v7.5h10.3v4.1zm38.6 0l-6.3-15.7v15.7h-4.2v-27.3h4.2l6.3 16v-16h4.2v27.3zm45.9-27.3h4V294l6.4-11.5h4.2l-6 10.8 6 16.5h-4.4l-4.3-11.8-1.9 3.4v8.4h-4zm39 27.3l-.8-5.3h-5.5l-.7 5.3h-4.2l4.3-27.3h6.8l4.3 27.3zm-5.6-9.2h4.2l-2.1-14.1zm26.9 1.7c0 1.3.3 4 3.3 4s3.3-2.8 3.3-3.8-.4-3.2-3.4-4.5c-4.7-2.1-7.2-3.3-7.2-8.3s2.4-7.7 7.3-7.7 7.4 4.3 7.4 8.1v.9h-4.1v-.9c0-1.2-.3-4.1-3.3-4.1s-3.3 3.1-3.3 3.9.7 2.8 3.7 4 7 3.1 7 8.6-2.5 7.8-7.4 7.8-7.3-4.3-7.3-8v-2.5h4zm28.2 0c0 1.3.2 4 3.3 4s3.3-2.8 3.3-3.8-.4-3.2-3.4-4.5c-4.7-2.1-7.2-3.3-7.2-8.3s2.3-7.7 7.3-7.7 7.3 4.3 7.3 8.1v.9h-4v-.9c0-1.2-.3-4.1-3.3-4.1s-3.3 3.1-3.3 3.9.7 2.8 3.7 4 6.9 3.1 6.9 8.6-2.4 7.8-7.3 7.8-7.3-4.3-7.3-8v-2.5h4zm35 7.5l-.7-5.3h-5.5l-.8 5.3h-4.2l4.3-27.3h6.8l4.3 27.3zm-5.6-9.2h4.2l-2.1-14.1z"></path></svg>